<svg width="24" height="24" viewBox="0 0 24 24" fill="none" xmlns="http://www.w3.org/2000/svg">
  <path d="M12 2C8.5 2 6 4.5 6 8C6 10 6.5 11.5 7 12.5C7.5 13.5 8 14.5 8 16C8 18.5 9.5 20 12 20C14.5 20 16 18.5 16 16C16 14.5 16.5 13.5 17 12.5C17.5 11.5 18 10 18 8C18 4.5 15.5 2 12 2Z" fill="#AB09B5"/>
  <path d="M12 4C14.5 4 16 5.5 16 8C16 9.5 15.5 10.5 15 11.5C14.5 12.5 14 13.5 14 15C14 16.5 13.5 17 12 17C10.5 17 10 16.5 10 15C10 13.5 9.5 12.5 9 11.5C8.5 10.5 8 9.5 8 8C8 5.5 9.5 4 12 4Z" fill="white"/>
</svg> 